<?xml version="1.0" encoding="UTF-8"?><svg id="_レイヤー_2" xmlns="http://www.w3.org/2000/svg" xmlns:xlink="http://www.w3.org/1999/xlink" viewBox="0 0 442 542"><defs><style>.cls-1{stroke:#fff;stroke-width:12px;}.cls-1,.cls-2,.cls-3,.cls-4{fill:none;}.cls-1,.cls-3,.cls-5,.cls-4,.cls-6{stroke-linecap:round;stroke-linejoin:round;}.cls-7{fill:#000;font-family:Futura-Bold, Futura;font-size:72px;font-weight:700;}.cls-8{fill:#c9c9c9;}.cls-8,.cls-2,.cls-9,.cls-10,.cls-11,.cls-12,.cls-13{stroke-width:0px;}.cls-14{clip-path:url(#clippath);}.cls-9{fill:#4d4d4d;}.cls-3,.cls-5,.cls-4{stroke-width:8px;}.cls-3,.cls-6{stroke:#040000;}.cls-10{fill:#666;}.cls-5{fill:#1a1a1a;}.cls-5,.cls-4{stroke:#000;}.cls-15{clip-path:url(#clippath-1);}.cls-6{fill:#e2e2e2;stroke-width:6px;}.cls-11{fill:#f5f6f7;}.cls-12{fill:#eaedef;}.cls-13{fill:red;}</style><clipPath id="clippath"><path class="cls-2" d="M338.45,257.31l-110.1-98.25c-3.05-2.72-7.64-2.76-10.73-.08l-113.74,98.33v-36.43c0-2.36,1.03-4.61,2.81-6.15l110.93-95.9c3.09-2.67,7.69-2.64,10.73.08l107.38,95.82c1.73,1.54,2.72,3.75,2.72,6.07v36.51Z"/></clipPath><clipPath id="clippath-1"><path class="cls-2" d="M331.54,311.28l.05-.18h-.08l-16.96-98.93c-.9-5.26-5.47-9.11-10.81-9.11h-161.44c-5.34,0-9.9,3.85-10.81,9.11l-16.96,98.93h-.08l.05.18-.05.27h.12l23.88,90.46c1.27,4.81,5.62,8.17,10.6,8.17h147.93c4.98,0,9.33-3.35,10.6-8.17l23.88-90.46h.12l-.05-.27Z"/></clipPath></defs><g id="basic"><rect class="cls-8" x="6" y="6" width="430" height="530" rx="40" ry="40"/><rect class="cls-12" x="6" y="6" width="430" height="530" rx="40" ry="40"/><path class="cls-11" d="M6.01,496.29c.16,21.96,18,39.71,39.99,39.71h350c22.09,0,40-17.91,40-40v-75.39L6.01,496.29Z"/><text class="cls-7" transform="translate(196.09 505.82)"><tspan x="0" y="0">B</tspan></text><rect class="cls-1" x="6" y="6" width="430" height="530" rx="40" ry="40"/><g class="cls-14"><polygon class="cls-6" points="338.45 257.31 223.02 154.3 103.87 257.31 103.87 217.16 223.02 114.15 338.45 217.16 338.45 257.31"/><line class="cls-4" x1="141" y1="185.73" x2="141" y2="225.22"/><line class="cls-4" x1="180.44" y1="150.96" x2="180.44" y2="191.11"/><line class="cls-4" x1="255.08" y1="142.76" x2="255.08" y2="182.24"/><line class="cls-4" x1="294.53" y1="178.34" x2="294.53" y2="218.49"/><polyline class="cls-4" points="103.87 257.31 223.02 154.3 223.02 114.15"/></g><path class="cls-4" d="M338.45,257.31l-110.1-98.25c-3.05-2.72-7.64-2.76-10.73-.08l-113.74,98.33v-36.43c0-2.36,1.03-4.61,2.81-6.15l110.93-95.9c3.09-2.67,7.69-2.64,10.73.08l107.38,95.82c1.73,1.54,2.72,3.75,2.72,6.07v36.51Z"/><polygon class="cls-5" points="338.45 257.31 220.07 301.62 103.87 257.31 224.22 155.58 338.45 257.31"/><polygon class="cls-9" points="305.43 410.18 140.61 410.18 114.45 311.1 331.59 311.1 305.43 410.18"/><g class="cls-15"><polygon class="cls-10" points="312.98 203.06 133.05 203.06 114.45 311.56 331.59 311.56 312.98 203.06"/></g><polyline class="cls-4" points="192.75 203.06 188.67 311.22 200.14 409.87"/><polyline class="cls-4" points="256.5 203.06 260.58 311.22 249.11 409.87"/><line class="cls-4" x1="123.75" y1="257.31" x2="322.29" y2="257.31"/><line class="cls-4" x1="123.75" y1="346.33" x2="322.29" y2="346.33"/><line class="cls-4" x1="118.45" y1="311.1" x2="331.47" y2="311.56"/><line class="cls-4" x1="132.66" y1="380.09" x2="312.14" y2="380.09"/><path class="cls-3" d="M331.54,311.28l.05-.18h-.08l-16.96-98.93c-.9-5.26-5.47-9.11-10.81-9.11h-161.44c-5.34,0-9.9,3.85-10.81,9.11l-16.96,98.93h-.08l.05.18-.05.27h.12l23.88,90.46c1.27,4.81,5.62,8.17,10.6,8.17h147.93c4.98,0,9.33-3.35,10.6-8.17l23.88-90.46h.12l-.05-.27Z"/><path class="cls-13" d="M324.92,158.05c1.76.17,3.24-1.29,3.11-3.04-.63-8.53-2.38-17.01-5.26-25.27-7-20.13-20.04-37.12-37.72-49.14-21.8-14.82-48.07-20.27-73.97-15.33-25.9,4.94-48.32,19.66-63.14,41.46-4.26,6.26-7.75,12.95-10.46,19.95l-18.8-6.41c-.85-.29-1.79-.28-2.59.12-1.55.78-2.18,2.53-1.63,4.05l15.82,43.63c.34.93,1.08,1.66,2.02,1.98.34.12.7.18,1.06.18.61,0,1.22-.17,1.75-.51l39.1-24.8c.76-.48,1.34-1.22,1.53-2.1.36-1.7-.61-3.29-2.13-3.81l-18.33-6.26c2.15-5.41,4.89-10.59,8.2-15.46,12.33-18.14,31.16-30.22,52.86-33.88,18.88-3.18,38.4.55,54.75,10.52,22.19,13.53,35.74,36.13,38.09,60.53.12,1.23,1.11,2.19,2.33,2.3l13.42,1.3Z"/></g></svg>